<svg xmlns="http://www.w3.org/2000/svg" width="590.63" height="111.936" viewBox="0 0 590.63 111.936">
  <path id="Path_33101" data-name="Path 33101" d="M2989.808,593.95l3.782-.083,1.6-1.557c.782-.046,1.584.124,2.061-.677a2.257,2.257,0,0,0-.832-1.062c-.2-.158-.369-.348-.553-.523a1.2,1.2,0,0,1,1.088-.8c1.2.12,1.782-.713,2.448-1.426a25.914,25.914,0,0,1,4.51-.275c1.309-.791,2.051-2.178,3.3-3.065a1.667,1.667,0,0,1,.716,1.148c.37,1.917.384,1.923,2.414,1.676.713-.654,1.2-1.639,2.429-1.491.493.059.848-.309,1.215-.734.735-.852.773-.827,1.6-.017.182.177.367.351.55.527a1.7,1.7,0,0,0,.527-.231c1.447-1.4,2.71-2.991,4.248-4.284,1.773.008,1.76.026,2.207,2.077a1.15,1.15,0,0,0,.436.566,1.382,1.382,0,0,0,.532.133q1.315-1.375,2.632-2.752a3.624,3.624,0,0,1,.7-.16c1.776-.051,3.553-.085,5.417-.126l1.641-1.529,9.008-.2,1.626-1.576,1.466-.033,1.654,1.408,2.685-2.806a2.255,2.255,0,0,1,.659-.239c2.03-.063,4.061-.1,6.091-.145,1.092-.024,1.093-.023,1.918-.882.7-.732,1.4-1.467,2.133-2.228l1.5-.033,1.637,1.443,2.99-.066,1.624-1.542,5.966-.131c.678-.634,1.062-1.383,1.823-1.534.507-.1,1.079.021,1.408-.294.916-.877,1.769-1.82,2.665-2.757,1.882,1.192,3.138,3.109,4.982,4.345,2.018-.147,2.028-.152,2.041-2.21.323-.378.641-.759.968-1.133.66-.755,1.3-1.547,2.481-1.35.736-.271,1.139-.93,1.679-1.436a5.328,5.328,0,0,1,1.458-.129.853.853,0,0,1,.777.906l-2.633,2.751a.91.91,0,0,0,.832.883,5.541,5.541,0,0,0,1.454-.154l4.217-4.407c2-.283,4.025-.113,6.067-.273l1.7,1.494c.673-.076,1.5.3,2.012-.537a3.812,3.812,0,0,0,.246-1.42c.2-1.344,1.351-1.147,2.229-1.216.589-.548,1.133-1.052,1.627-1.511,1.867-.041,3.644-.075,5.42-.126a3.386,3.386,0,0,0,.693-.166c.351-.366.688-.749,1.057-1.1a1.92,1.92,0,0,1,2.056-.09c1.618,1.256,1.617,1.273,3.308,1.2.254-.011.508-.012.762-.018a22.315,22.315,0,0,0,3.242-3.1l1.7,1.505,2.908-.064,1.728,1.459a13.778,13.778,0,0,0,3.045-.231l4.272-4.465,2.959-.065,1.653-1.606,4.507-.1,1.6-1.559,1.534-.121c.351-.367.689-.748,1.056-1.1a1.776,1.776,0,0,1,2.6.3,2.39,2.39,0,0,0,1.977.771c1.3-.08,1.3-.043,3.227-1.421a1.059,1.059,0,0,1,.675-.189,1.522,1.522,0,0,0,1.368-.4l1.09-1.138c.54.472,1.083.946,1.644,1.434l1.459-.032,1.65-1.6,4.457-.1c.6-.478.889-1.2,1.661-1.327,1.711,1.557,1.022,1.589,2.693-.078a13.05,13.05,0,0,1,3.084-.25l1.636-1.506,6.006-.133a5.705,5.705,0,0,1,1.068.947c.445.638.76.662,1.09-.062a2.7,2.7,0,0,0,.2-.676c.3-1.828.3-1.815,1.633-1.863,1.762-.064,3.53.02,5.267-.21.546-.428.825-1.164,1.607-1.269,1.7,1.542,1.009,1.591,2.693-.093a13.456,13.456,0,0,1,3.055-.238l1.687,1.43,1.468.038,1.612-1.572,1.441-.031,1.574-1.473c.613.424.907,1.17,1.721,1.205a2.946,2.946,0,0,1,2.457-1.4c1.517.076,3.045-.092,4.567-.058,1.334.03,2.524-.121,3.083-1.508a2.724,2.724,0,0,1,.663.279c.386.329.741.694,1.17,1.1.438-.01.937-.025,1.436-.031,1.739-.021,1.8-.049,2.082-.519a3.06,3.06,0,0,0,.277-1.412c.071-.887.537-1.187,1.511-1.206,3.3-.065,6.592-.142,9.814-.213l1.669,1.421a18.52,18.52,0,0,0,1.617-1.714,3.393,3.393,0,0,1,3.25-1.4,2.069,2.069,0,0,1,1.953.818c.185.174.367.351.619.592.511-.463,1.026-.931,1.6-1.454l2.91-.064,1.668-1.606,1.419-.031,1.631-1.5a3.049,3.049,0,0,0,3.284,1.42c.247-.046.508,0,.76-.026a1.554,1.554,0,0,0,1.193-.781,1.487,1.487,0,0,1,1.189-.786c4.314-.106,8.629-.25,12.944-.26a3.346,3.346,0,0,0,3.177-1.506c.993-.114,2-.137,2.609-1.11a3.764,3.764,0,0,1,.521-.554c.715,0,1.639-.433,2.031.415.364.789-.673,1.06-1,1.652a.868.868,0,0,0,.8.865,5.4,5.4,0,0,0,1.459-.139c1.173-1.3,1.183-1.283,2.7-.159.1.072.381-.01.52-.1.452-.309.473-.769.443-1.341-.052-1.012.349-1.38,1.287-1.415.761-.029,1.523-.036,2.357-.054l1.624-1.541,2.949-.065,1.612-1.553,1.446-.031,1.64,1.364c.62-.439.848-1.24,1.689-1.236.675.752,1.362,1.456,2.533,1.253a11.85,11.85,0,0,1,1.647-.049l1.7,1.392,3.127-3.054,4.466-.1c.568-.487.9-1.166,1.668-1.382a3.146,3.146,0,0,0,3.237,1.328,23.017,23.017,0,0,1,3.8-.084,3.367,3.367,0,0,0,3.248-1.4c.108-.154.428-.178.658-.225,1.267-.26,1.277-.246,2.428-1.47a4.921,4.921,0,0,1,.714-.122c2.792-.069,5.583-.128,8.437-.19l1.614-1.549,9.056-.2,1.587-1.517c.579.435.92,1.126,1.719,1.269a3.217,3.217,0,0,1,3.169-1.456c2.028.06,4.063-.138,6.09-.078a3.023,3.023,0,0,0,2.452-1.4,2.785,2.785,0,0,1,.692-.209c2.538-.069,5.076-.116,7.614-.178,1-.025,1.005-.037,1.94.837.186.173.367.351.6.572l1.587-1.489,6.014-.133,1.644-1.6,10.637-.234a3.016,3.016,0,0,1,3.161-1.558q7.615-.168,15.229-.342a14.75,14.75,0,0,0,1.5-.188,3.3,3.3,0,0,1,3.169-1.462c3.553.01,7.106-.133,10.66-.2,1.175-.022,1.183.008,2.475-1.389a20.118,20.118,0,0,1,4.475-.284,42.982,42.982,0,0,1,4.566-.08,3.206,3.206,0,0,0,3.15-1.5,5.442,5.442,0,0,1,.756-.131c3.3-.079,6.6-.15,9.962-.223l1.582-1.518,1.641,1.417a3.42,3.42,0,0,1,3.164-1.6c3.043.057,6.091-.089,9.136-.17a15.1,15.1,0,0,0,1.5-.188,3.3,3.3,0,0,1,3.168-1.462c4.061-.006,8.122-.2,12.183-.208a3.115,3.115,0,0,0,2.451-1.4,2.766,2.766,0,0,1,.692-.214q3.045-.089,6.091-.141c1.005-.018,1.012-.007,1.9-.917.178-.182.351-.367.527-.55a3.016,3.016,0,0,1,.541.308c.381.335.738.7,1.115,1.057l4.544-.1,1.566-1.5c.575.444.928,1.118,1.713,1.28a3.274,3.274,0,0,1,3.177-1.468c3.045.026,6.092-.164,9.137-.142a3.109,3.109,0,0,0,2.458-1.416,27.944,27.944,0,0,1,5.254-.3c.993-.049,1-.014,1.9-.929.178-.182.351-.367.527-.551a44.426,44.426,0,0,1,4.579-.208l1.677,1.482,1.469-.033,1.629-1.589,5.963-.132,1.65-1.523c1.365-.03,2.634-.049,3.9-.093a3.4,3.4,0,0,0,.7-.176c.67-.706,1.24-1.474,2.444-1.439,2.027.06,4.06-.061,6.09-.1a1.344,1.344,0,0,1,1.2,1.542c-.008.25.008.5.013.718l-2.137,2.233-1.484.133c-1.352,1.138-2.478,2.5-3.794,3.819.021.93.043,1.926.065,2.923l-1.531,1.778c.01.43.021.931.03,1.337l-11.209,11.712a29.616,29.616,0,0,1-4.42.233l-1.647,1.516-12.054.266-1.643,1.6-4.5.1-1.658,1.606-3.009.066a3.4,3.4,0,0,1-3.181,1.58c-3.553-.029-7.107.129-10.66.191a3.515,3.515,0,0,0-1.46.237c-.652.72-1.25,1.547-2.446,1.394-.5-.064-1.015.042-1.521.014-1.324-.073-2.534.078-3.051,1.389a4.535,4.535,0,0,1-.853.221c-3.807.093-7.615.174-11.521.26l-1.614,1.485c-.513-.445-1.056-.917-1.583-1.376-.528.509-1.065,1.03-1.578,1.525l-1.468-.071-1.678-1.388-4.434.1c-.835.932-1.437,1.7-2.633,1.6-1.007-.084-2.035.1-3.043.026a3.1,3.1,0,0,0-3.167,1.439,3.638,3.638,0,0,1-.739.183c-2.538.067-5.076.162-7.614.151a2.38,2.38,0,0,0-1.887.977c-.17.188-.35.368-.562.589l-4.5.1-1.63,1.59-15.178.334-1.675-1.481c-1.566.036-3.076.068-4.4.1l-1.729,1.562-5.957.131c-.834.932-1.443,1.608-2.631,1.612-4.061.011-8.122.148-12.183.238-1.867.041-1.867.041-3.22,1.435a22.788,22.788,0,0,1-4.492.25c-4.06.114-8.122.178-12.182.285-.721.02-1.511-.2-2.122.409-.36.359-.7.732-1.093,1.139l-12.112.266-1.644,1.6-2.98.066-1.6,1.555-19.714.433c-2.058,2.088-2.058,2.088-4.308.354a1.9,1.9,0,0,0-2.057.07c-.371.346-.707.729-1.056,1.095-.756-.14-1.1-.822-1.683-1.264l-1.567,1.5-2.983.065-1.676-1.479-4.4.1c-.7.633-1.249,1.127-1.723,1.556a23.981,23.981,0,0,0-4.622.307,2.962,2.962,0,0,1-2.453,1.405c-1.518-.076-3.045.029-4.567.087a.957.957,0,0,0-.626.3c-.67.778-1.357,1.481-2.517,1.283l-1.775,1.529-12.022.265-1.645,1.6-4.5.1-1.611,1.55c-3.867.085-7.674.171-11.482.248a4.806,4.806,0,0,1-.7-.084c-.564-.4-.867-1.131-1.671-1.185a3.067,3.067,0,0,1-2.456,1.41c-2.537-.041-5.076.081-7.614.138-1.857.04-1.857.041-3.291,1.517l-2.9.063-1.733,1.608-19.671.433-1.606,1.559-1.591-1.4a2.5,2.5,0,0,0-2.657,1.184,2.059,2.059,0,0,1-.6.358c-.762.017-1.523.026-2.284.053a1.472,1.472,0,0,0-1.2.763,1.517,1.517,0,0,1-1.18.8c-2.284.071-4.57.185-6.852.132a3.237,3.237,0,0,0-3.165,1.456c-1.529.409-3.054.052-4.778.4l-1.5,1.4-9.017.2-1.639,1.6-12.116.266-1.613,1.55c-2.346.052-4.63.1-6.914.157a5.4,5.4,0,0,0-.757.129,3.29,3.29,0,0,1-3.148,1.509c-2.281-.071-4.568.062-6.852.127a2.654,2.654,0,0,0-.675.205l-1.053,1.1a2.21,2.21,0,0,1-.654.251c-1.776.058-3.556.17-5.329.1a3.233,3.233,0,0,0-3.221,1.542l-2.972.066-1.7,1.576-1.442.1-1.657-1.447-1.585,1.518c-2.856.063-5.648.121-8.44.191a5.181,5.181,0,0,0-.756.133,3.315,3.315,0,0,1-3.149,1.505c-2.79-.051-5.583.085-8.375.16a2.575,2.575,0,0,0-.673.209l-1.053,1.1a2.25,2.25,0,0,1-.656.247c-1.268.05-2.537.066-3.806.095-1.849.041-1.849.041-3.21,1.441a3.477,3.477,0,0,1-.7.162c-2.791.072-5.584.129-8.464.193l-1.643,1.528-5.965.131-1.646,1.6-13.674.3a6.224,6.224,0,0,0-.533.564,2.261,2.261,0,0,1-2.4,1.026c-.7.628-1.248,1.12-1.727,1.55-.884.019-1.646.027-2.407.056a1.479,1.479,0,0,0-1.2.766,1.515,1.515,0,0,1-1.182.8c-1.776.061-3.556.169-5.328.1a3.2,3.2,0,0,0-3.163,1.458,3.943,3.943,0,0,1-.743.172c-3.3.082-6.6.152-9.987.226l-1.641,1.529-4.44.1-1.652,1.605-4.493.1-1.554,1.486-3.068.068c-.243-.233-.423-.412-.61-.583-1.259-1.146-2.059-1.178-3.13-.042-.377.4-.711.771-1.2.784-3.3.088-6.6.217-9.9.2a3.293,3.293,0,0,0-3.162,1.464,3.991,3.991,0,0,1-.743.17c-2.791.071-5.584.129-8.462.192-.5.463-1.038.969-1.64,1.53l-2.907.064-1.636,1.576-1.464.032-1.617-1.373-1.635,1.459c-4.952.109-9.774.218-14.6.313a2.514,2.514,0,0,1-.679-.186q-1.65-1.579-3.3-3.159a1.824,1.824,0,0,1,.284-2.609l1.662,1.435c1.777-.039,3.554-.112,5.33-.1.571.005,1.046-.071,1.253-.63.117-.318-.222-.7-.7-1.058a7.247,7.247,0,0,1-.595-.562l1.432-1.647C2989.842,595.476,2989.825,594.713,2989.808,593.95Z" transform="translate(-2980.771 -492.777)" fill="#003c71"/>
</svg>
