<svg xmlns="http://www.w3.org/2000/svg" width="683.09" height="129.458" viewBox="0 0 683.09 129.458">
  <path id="Path_9423" data-name="Path 9423" d="M3003.036,4998.507l4.373-.1,1.847-1.8c.9-.053,1.832.145,2.384-.782a2.6,2.6,0,0,0-.963-1.228c-.228-.183-.427-.4-.639-.606a1.385,1.385,0,0,1,1.258-.929c1.392.138,2.061-.825,2.832-1.65a30.049,30.049,0,0,1,5.215-.318c1.514-.914,2.372-2.518,3.817-3.544a1.93,1.93,0,0,1,.828,1.328c.428,2.216.445,2.223,2.792,1.937.824-.756,1.389-1.9,2.809-1.724.57.069.981-.357,1.4-.848.85-.986.894-.957,1.856-.02.21.205.424.406.636.609a1.927,1.927,0,0,0,.609-.267c1.674-1.624,3.134-3.459,4.913-4.955,2.051.01,2.036.03,2.553,2.4a1.322,1.322,0,0,0,.5.655,1.646,1.646,0,0,0,.615.153l3.045-3.182a4.061,4.061,0,0,1,.8-.186c2.054-.059,4.109-.1,6.265-.145l1.9-1.769,10.418-.23,1.881-1.823,1.7-.038,1.914,1.628,3.1-3.244a2.6,2.6,0,0,1,.763-.278c2.347-.072,4.7-.115,7.044-.167,1.263-.028,1.264-.027,2.218-1.02.814-.847,1.625-1.7,2.468-2.577l1.737-.038,1.893,1.669,3.459-.077,1.878-1.783,6.9-.151c.784-.734,1.228-1.6,2.108-1.774.587-.117,1.248.024,1.629-.34,1.06-1.014,2.045-2.1,3.082-3.189,2.176,1.378,3.629,3.6,5.762,5.026,2.333-.171,2.346-.177,2.361-2.557.373-.437.741-.878,1.119-1.31.763-.873,1.5-1.79,2.869-1.561.851-.313,1.317-1.077,1.942-1.662a6.176,6.176,0,0,1,1.687-.149.987.987,0,0,1,.9,1.048l-3.045,3.182a1.051,1.051,0,0,0,.962,1.021,6.442,6.442,0,0,0,1.682-.177q2.434-2.547,4.877-5.1c2.314-.328,4.655-.132,7.017-.317l1.97,1.729c.778-.089,1.739.345,2.327-.621a4.379,4.379,0,0,0,.284-1.643c.237-1.554,1.564-1.327,2.579-1.407l1.881-1.747c2.16-.048,4.215-.086,6.269-.146a3.988,3.988,0,0,0,.8-.191c.406-.424.795-.866,1.222-1.269a2.221,2.221,0,0,1,2.378-.1c1.871,1.454,1.869,1.473,3.825,1.392.294-.012.588-.014.881-.02,1.5-.942,2.5-2.4,3.75-3.586l1.963,1.74,3.362-.074,2,1.688a15.919,15.919,0,0,0,3.522-.267l4.941-5.164,3.422-.075,1.913-1.858,5.211-.114,1.849-1.8,1.774-.139c.406-.425.8-.865,1.221-1.27.808-.772,1.981-.668,3,.349a2.769,2.769,0,0,0,2.287.892c1.5-.092,1.5-.05,3.732-1.644a1.236,1.236,0,0,1,.781-.219,1.756,1.756,0,0,0,1.582-.466c.407-.424.812-.848,1.26-1.316l1.9,1.659,1.687-.037,1.908-1.857,5.156-.113c.692-.554,1.027-1.39,1.92-1.536,1.979,1.8,1.183,1.839,3.115-.09a15.13,15.13,0,0,1,3.567-.289l1.892-1.742,6.946-.153a6.572,6.572,0,0,1,1.235,1.1c.514.738.879.766,1.261-.072a3.131,3.131,0,0,0,.229-.782c.353-2.114.35-2.1,1.888-2.155,2.038-.073,4.083.024,6.092-.242.632-.5.954-1.347,1.859-1.468,1.964,1.784,1.167,1.84,3.114-.107a15.518,15.518,0,0,1,3.533-.276l1.951,1.655,1.7.043,1.864-1.818,1.667-.036,1.82-1.7c.709.49,1.049,1.352,1.991,1.393.752-.857,1.463-1.687,2.841-1.619,1.755.088,3.523-.107,5.282-.067,1.543.035,2.92-.14,3.567-1.745a3.262,3.262,0,0,1,.767.323c.446.381.856.8,1.352,1.279.507-.011,1.084-.029,1.661-.036,2.012-.024,2.077-.057,2.408-.6a3.548,3.548,0,0,0,.321-1.633c.081-1.026.621-1.372,1.747-1.394,3.812-.075,7.624-.165,11.35-.247l1.931,1.644a21.424,21.424,0,0,0,1.869-1.983,3.923,3.923,0,0,1,3.759-1.614,2.391,2.391,0,0,1,2.259.946c.214.2.425.406.717.685l1.85-1.682,3.366-.074,1.93-1.857,1.641-.037,1.886-1.739a3.526,3.526,0,0,0,3.8,1.642c.285-.052.587,0,.879-.029a1.8,1.8,0,0,0,1.38-.9,1.72,1.72,0,0,1,1.375-.909c4.989-.122,9.98-.289,14.97-.3a3.869,3.869,0,0,0,3.674-1.743c1.149-.131,2.315-.158,3.018-1.283a4.415,4.415,0,0,1,.6-.641c.828,0,1.9-.5,2.349.48.421.913-.778,1.226-1.153,1.911a1,1,0,0,0,.924,1,6.309,6.309,0,0,0,1.688-.16c1.356-1.51,1.368-1.484,3.123-.184.114.083.441-.012.6-.122.524-.358.548-.889.514-1.551-.06-1.17.4-1.6,1.488-1.637.88-.033,1.761-.041,2.725-.062l1.879-1.783,3.41-.075,1.864-1.795,1.674-.037,1.9,1.579c.717-.509.98-1.435,1.952-1.43.781.87,1.576,1.684,2.929,1.449a13.756,13.756,0,0,1,1.9-.057l1.969,1.611,3.617-3.533,5.164-.113c.658-.564,1.043-1.348,1.93-1.6a3.638,3.638,0,0,0,3.744,1.537,26.735,26.735,0,0,1,4.4-.1,3.892,3.892,0,0,0,3.756-1.624c.126-.178.5-.205.761-.26,1.466-.3,1.478-.284,2.809-1.7a5.557,5.557,0,0,1,.825-.141c3.229-.08,6.458-.147,9.759-.22l1.866-1.792,10.474-.23c.629-.6,1.237-1.184,1.835-1.755.67.5,1.064,1.3,1.989,1.468a3.718,3.718,0,0,1,3.665-1.684c2.345.07,4.7-.159,7.043-.091,1.378.041,2.083-.777,2.835-1.624a3.218,3.218,0,0,1,.8-.242c2.935-.08,5.871-.134,8.806-.206,1.155-.029,1.162-.043,2.244.968.214.2.424.406.692.662l1.835-1.723,6.956-.153,1.9-1.855,12.3-.271a3.489,3.489,0,0,1,3.656-1.8q8.807-.193,17.612-.4a16.672,16.672,0,0,0,1.732-.217c.831-1.348,2.083-1.695,3.665-1.69,4.109.011,8.219-.155,12.328-.233,1.359-.026,1.369.009,2.864-1.606a23.243,23.243,0,0,1,5.174-.329,49.824,49.824,0,0,1,5.282-.093,3.707,3.707,0,0,0,3.643-1.738,6.211,6.211,0,0,1,.874-.151c3.816-.092,7.632-.173,11.522-.259l1.829-1.755,1.9,1.639a3.952,3.952,0,0,1,3.659-1.853c3.52.066,7.044-.1,10.567-.2a17.264,17.264,0,0,0,1.732-.217c.83-1.347,2.082-1.688,3.664-1.691,4.7-.007,9.393-.228,14.09-.241a3.6,3.6,0,0,0,2.835-1.62,3.207,3.207,0,0,1,.8-.247c2.348-.069,4.7-.119,7.045-.163,1.162-.021,1.17-.009,2.2-1.061.205-.21.406-.424.609-.637a3.5,3.5,0,0,1,.625.357c.441.387.854.806,1.29,1.223l5.255-.115,1.811-1.732c.666.513,1.074,1.293,1.982,1.48.837-1.366,2.094-1.71,3.674-1.7,3.522.029,7.046-.191,10.568-.165a3.6,3.6,0,0,0,2.843-1.638c2.01-.482,4.053-.247,6.076-.346,1.149-.057,1.158-.016,2.2-1.076.206-.209.407-.424.609-.636a51.154,51.154,0,0,1,5.3-.24l1.94,1.713,1.7-.038,1.885-1.838,6.9-.152,1.908-1.762c1.579-.034,3.047-.057,4.514-.107a3.945,3.945,0,0,0,.81-.2c.775-.816,1.433-1.7,2.826-1.664,2.345.069,4.7-.071,7.044-.121a1.554,1.554,0,0,1,1.387,1.783c-.009.288.01.577.016.83l-2.472,2.583-1.716.154c-1.564,1.315-2.866,2.9-4.388,4.416.024,1.076.049,2.228.074,3.382l-1.77,2.055c.011.5.024,1.077.034,1.546l-12.963,13.546a34.158,34.158,0,0,1-5.112.269l-1.905,1.754-13.94.307-1.9,1.855-5.209.115c-.646.626-1.268,1.228-1.917,1.858l-3.48.076a3.934,3.934,0,0,1-3.68,1.827c-4.109-.033-8.219.149-12.329.221a4.053,4.053,0,0,0-1.688.274c-.754.832-1.446,1.789-2.829,1.612-.576-.074-1.174.049-1.759.017-1.532-.084-2.931.09-3.528,1.607a5.273,5.273,0,0,1-.988.254c-4.4.109-8.806.2-13.324.3l-1.866,1.718-1.831-1.592-1.825,1.764-1.7-.082-1.942-1.606-5.128.113c-.965,1.078-1.662,1.97-3.045,1.855-1.164-.1-2.354.118-3.519.03a3.583,3.583,0,0,0-3.663,1.665,4.286,4.286,0,0,1-.854.211c-2.935.078-5.871.187-8.806.175a2.752,2.752,0,0,0-2.183,1.13c-.2.217-.4.425-.65.68l-5.2.115-1.885,1.838-17.554.386-1.937-1.712-5.09.112-2,1.807-6.889.151c-.965,1.079-1.669,1.861-3.043,1.865-4.7.013-9.394.172-14.091.275-2.159.048-2.159.048-3.724,1.661a26.5,26.5,0,0,1-5.194.289c-4.7.131-9.394.205-14.09.329-.834.022-1.748-.232-2.454.473-.416.414-.814.847-1.264,1.317l-14.008.308-1.9,1.855-3.446.076c-.647.627-1.268,1.229-1.857,1.8l-22.8.5c-2.38,2.414-2.38,2.414-4.983.409a2.2,2.2,0,0,0-2.379.081c-.429.4-.817.843-1.221,1.266-.875-.162-1.275-.951-1.946-1.462l-1.813,1.731-3.45.076-1.938-1.711-5.089.112-1.993,1.8c-1.871.128-3.622-.11-5.345.355-.755.847-1.456,1.694-2.837,1.625-1.756-.088-3.522.034-5.282.1a1.12,1.12,0,0,0-.725.344c-.774.9-1.569,1.713-2.91,1.484l-2.053,1.768-13.9.306-1.9,1.856-5.2.114-1.864,1.793c-4.473.1-8.876.2-13.279.287a5.422,5.422,0,0,1-.812-.1c-.652-.459-1-1.307-1.933-1.37a3.542,3.542,0,0,1-2.841,1.63c-2.934-.047-5.87.095-8.806.16-2.147.048-2.147.048-3.806,1.755l-3.355.074-2,1.859-22.751.5-1.857,1.8-1.84-1.62c-1.479-.325-2.307.436-3.073,1.37a2.423,2.423,0,0,1-.7.414c-.88.019-1.761.03-2.642.061a1.7,1.7,0,0,0-1.389.882,1.752,1.752,0,0,1-1.365.928c-2.641.082-5.285.214-7.925.152a3.745,3.745,0,0,0-3.66,1.684c-1.768.473-3.532.061-5.526.461l-1.738,1.616-10.428.229-1.9,1.855c-4.678.1-9.372.206-14.012.308l-1.866,1.792c-2.712.06-5.354.114-8,.182a6.363,6.363,0,0,0-.876.148,3.8,3.8,0,0,1-3.641,1.746c-2.637-.082-5.283.072-7.924.147a3.064,3.064,0,0,0-.78.237l-1.218,1.273a2.5,2.5,0,0,1-.757.29c-2.054.068-4.113.2-6.163.118a3.74,3.74,0,0,0-3.725,1.784l-3.437.076-1.963,1.823-1.667.111-1.918-1.673-1.833,1.755c-3.3.073-6.532.141-9.761.22a6.124,6.124,0,0,0-.873.154,3.837,3.837,0,0,1-3.643,1.741c-3.226-.058-6.457.1-9.686.185a2.993,2.993,0,0,0-.778.242l-1.218,1.273a2.611,2.611,0,0,1-.758.286c-1.467.058-2.935.077-4.4.11-2.138.048-2.138.048-3.712,1.666a3.991,3.991,0,0,1-.8.188c-3.228.083-6.457.15-9.789.223l-1.9,1.767-6.9.152-1.905,1.855-15.813.348a6.945,6.945,0,0,0-.618.653,2.614,2.614,0,0,1-2.776,1.186l-2,1.792c-1.022.023-1.9.032-2.783.065a1.711,1.711,0,0,0-1.388.886,1.753,1.753,0,0,1-1.367.924c-2.054.07-4.113.2-6.163.115a3.7,3.7,0,0,0-3.658,1.686,4.534,4.534,0,0,1-.858.2c-3.816.1-7.632.176-11.551.262l-1.9,1.768-5.134.113-1.911,1.856-5.2.115c-.663.633-1.286,1.23-1.8,1.719l-3.549.078c-.281-.269-.489-.477-.706-.674-1.455-1.326-2.38-1.363-3.619-.049-.436.463-.823.893-1.382.907-3.816.1-7.633.25-11.448.226a3.806,3.806,0,0,0-3.656,1.694,4.677,4.677,0,0,1-.86.2c-3.229.083-6.458.15-9.787.223l-1.9,1.77-3.363.074-1.891,1.821-1.693.038-1.871-1.587-1.891,1.687c-5.727.126-11.3.252-16.882.361a2.892,2.892,0,0,1-.785-.215q-1.909-1.827-3.819-3.653a2.111,2.111,0,0,1,.329-3.018l1.922,1.66c2.055-.045,4.11-.13,6.164-.113.661,0,1.21-.082,1.449-.729.136-.368-.257-.806-.814-1.224a8.191,8.191,0,0,1-.688-.65l1.656-1.9Z" transform="translate(-2992.585 -4881.496)" fill="#00a3e0"/>
</svg>
