<?xml version="1.0" encoding="utf-8"?>
<!-- Generator: Adobe Illustrator 25.2.1, SVG Export Plug-In . SVG Version: 6.00 Build 0)  -->
<svg version="1.1" id="Layer_1" xmlns="http://www.w3.org/2000/svg" xmlns:xlink="http://www.w3.org/1999/xlink" x="0px" y="0px"
	 viewBox="0 0 516.6 286.6" style="enable-background:new 0 0 516.6 286.6;" xml:space="preserve">
<style type="text/css">
	.st0{fill:#FEDD0A;}
</style>
<g>
	<path class="st0" d="M208.8,108.1c-5.6,0-10,4.2-10,9.6c0,4.3,3,7.8,7.2,8.8c-1.6,3.1-4.5,6.4-8.5,9.4l-1.1,0.9l7.8,4.1l0.4-0.3
		c3.3-2.1,14.2-9.7,14.3-21.8C219,112.5,214.8,108.1,208.8,108.1z"/>
	<polygon class="st0" points="129.3,124.5 151.8,124.5 151.8,177.6 169,177.6 169,124.5 189.4,124.5 192.2,110.4 129.3,110.4 	"/>
	<path class="st0" d="M96.7,123.3c9.9,0,16.5,2.5,19.6,4l0.9,0.5l4.6-13.4L121,114c-7.4-2.9-16.3-4.5-25.2-4.5
		c-22.8,0-39.9,15.6-39.9,36.2c0,19.3,17.3,32.8,42.1,32.8c7.7,0,16.1-1.7,20.5-3.2l0.5-0.2l1.7-14.7l-1.4,0.5
		c-4.9,1.8-13.5,3.8-20.7,3.8c-13.2,0-22.4-5-24.8-13.5l32.6,0l1.8-13.2H74.1C77.1,128.9,85.7,123.3,96.7,123.3z"/>
	<path class="st0" d="M259.1,136.5c-14-2-17.8-3.5-17.8-6.9c0-3.1,4.4-6.4,14.1-6.4c10.1,0,20.4,2.6,25.2,5.1l0.9,0.5l4.6-13.7
		l-0.8-0.3c-7-2.9-20.3-5.3-29.6-5.3c-18.3,0-31,8.9-31,21.5c0,11.6,8.8,18.2,27.5,20.7c15.1,2,19.2,3,19.2,6.5
		c0,3.2-4.6,6.4-15,6.4c-9.6,0-18.3-1.9-27.3-6.1l-1-0.4l-4.1,14.3l0.8,0.3c8.4,3.4,21.8,5.8,31.7,5.8c9,0,16.8-2,22.5-5.8
		c5.9-3.9,9-9.5,9-16C288.1,145.2,279.7,139.4,259.1,136.5z"/>
	<polygon class="st0" points="17.3,110.4 0,110.4 0,177.6 50,177.6 53.4,163.8 17.3,163.8 	"/>
	<path class="st0" d="M354.1,0l-45.5,258l162.5,28.6l45.5-258L354.1,0z M470.8,162.8c-0.6-8.8-1.5-16.4-3.1-16
		c-1.7,0.4-0.6,3.6-0.5,6.5c0.3,6,0.3,15.7,2.3,24.5c-2.4,7.4-3.2,18.3-4,24.5c-0.8,1.4-1.4,2.2-1.8,4.2c-0.2,1-0.4,2.5-0.3,2.8
		c-0.1,0-0.1,0-0.2,0c-0.6-0.1-12.1-2.2-12.1-2.2s-0.2-2,1.8-2.4c1.8-0.4,5.4-1.1,7.6-5.4c4.6-9.1,1.7-27.7-3.5-39.2
		c-0.4-0.9-1-0.7-1-0.7s-0.6,0-0.7,0.8c-1,5.6-1.4,10.3-1.6,15.8c-5.8,11.1-5.6,12.9-8.8,21.4c-1.4,1.2-2.6,2-3.6,4.2
		c-0.6,1.2-1.1,3.2-1.2,3.6l-11.3-2c0,0,0-2.2,1.8-2.4c1.8-0.3,5.3-1.4,8.2-4.5c10.8-15,8.1-33.4,5-49.2c-5.9-1.2-13.2,4.6-25.3,2.3
		c-2.3,13.6-2.1,31-2.7,41.2c-3.1,2.9-3.1,9.8-3.1,9.8l-12.7-2.2c0,0,0-1.9,1.5-2.4c2.3-0.7,4.6-1.1,6.1-3.1
		c5.9-8.1,4.1-21.6,2.3-35.4c-0.2-1.3-0.1-2.9-1.4-3c-1.2,0-1.1,1.7-1.3,3c-0.6,3.7-3.8,22.3-5.2,30.5c-3.9,2.4-4.7,9.9-4.7,9.9
		l-13.3-2.3c0,0,0.2-2,1.5-2.3c2.9-0.8,5.5-1.2,7.5-3.5c8.4-9.8,7.5-31.9,5.5-47.5c-8.4-2.3-19.6-13.5-23.3-26.4
		c-1-3.4-1.8-8.9-1.8-13.3c0-2.4,0.5-7.6-2.7-11.7c-0.5-0.7-3.8-3.6-4.6-4.2c-0.8-0.6-1.5-1.1-2.9-1.5c-3.6-0.8-3-2.6-2.8-3.2
		c0.1-0.4,0.2-0.8,0.7-1.6c0.9-1.6,2.9-2.6,6.6-1.6c2.5,0.6,11.3,2.7,12.7,3.1c1.4,0.5,2,1.2,4.1,1.9c2.6,0.7,4.3,0.5,4.5,0.9
		c0.2,0.4-0.7,2.2-2.5,3.7c-0.4,0.4-0.8,0.8-0.8,2.8c0,1.5,0.4,8.8,0.8,12c1.2,7,4,12.9,10.6,14.6c7.8,2,16.1-3.7,24.4-8.5
		c8.5-4.8,19.8-5.5,27.5,5.5c3.7,5.2,8.8,7.6,11.4,10c6.7,6.1,12.9,16.4,12.3,38.3C472.5,163.8,470.9,164,470.8,162.8z"/>
</g>
<g>
</g>
<g>
</g>
<g>
</g>
<g>
</g>
<g>
</g>
<g>
</g>
</svg>
